<?xml version="1.0" encoding="UTF-8"?>
<svg width="384px" height="351px" viewBox="0 0 384 351" version="1.1" xmlns="http://www.w3.org/2000/svg" xmlns:xlink="http://www.w3.org/1999/xlink">
    <g stroke="none" stroke-width="1" fill="none" fill-rule="evenodd">
        <g>
          <rect x="0" y="0" width="384" height="351"></rect>
          <g transform="translate(54.000000, 50.000000)" fill="#000000">
              <polygon id="Path" points="70.0294449 0 132.917 110.081 143.579 110.081 172.333547 65.8049259 191.656199 97.899461 162.314 143.080926 114.086 143.081 51.082 33.081 26 33.0811164 26 0.0811163956"></polygon>
              <polygon id="Path" points="192.029445 0 254.917 110.081 275 110.081116 275 143.081116 236.086 143.081 173.082 33.081 148 33.0811164 148 0.0811163956"></polygon>
              <path d="M50.1835466,66 L69.5061995,98.0945351 L40.164,143.276 L1.42108547e-14,143.276 L50.1835466,66 Z" id="Combined-Shape"></path>
          </g>
          <path d="M61.98898,303 L61.98898,279.191429 L62.3089371,279.191429 L71.5688715,302.755327 L77.3657409,302.755327 L86.6256753,279.323176 L86.9456324,279.323176 L86.9456324,303 L96.0173567,303 L96.0173567,264.454582 L84.4800808,264.454582 L74.6931583,288.319616 L74.2414542,288.319616 L64.4545317,264.454582 L52.9172557,264.454582 L52.9172557,303 L61.98898,303 Z M170.42831,303 L170.42831,295.433956 L152.868312,295.433956 L152.868312,287.510313 L169.054376,287.510313 L169.054376,279.925448 L152.868312,279.925448 L152.868312,272.020626 L170.42831,272.020626 L170.42831,264.454582 L143.551915,264.454582 L143.551915,303 L170.42831,303 Z M232.925551,303.489346 C242.524264,303.489346 248.208207,299.141694 248.245849,291.820323 C248.208207,285.665855 244.048765,281.901654 236.445079,280.226584 L233.132582,279.473744 C229.631875,278.720904 227.410997,277.554002 227.486281,275.257839 C227.505102,273.149886 229.311918,271.625385 232.925551,271.625385 C236.558005,271.625385 238.553032,273.262812 238.797705,276.010679 L247.718861,276.010679 C247.643577,268.802234 241.90317,263.927594 232.944372,263.927594 C224.136142,263.927594 217.793463,268.72695 217.849926,275.897753 C217.831105,281.751086 221.934084,285.044761 228.59672,286.569263 L232.624415,287.510313 C236.859141,288.489005 238.760063,289.637087 238.797705,291.801502 C238.760063,294.154128 236.558005,295.791555 232.812625,295.791555 C228.690825,295.791555 225.9806,293.871813 225.773569,290.164075 L216.852413,290.164075 C216.965339,299.179336 223.232734,303.489346 232.925551,303.489346 Z M301.803114,303 L304.34395,294.906968 L317.6504,294.906968 L320.191236,303 L330.20401,303 L317.198696,264.454582 L304.795654,264.454582 L291.79034,303 L301.803114,303 Z M315.429522,287.83027 L306.564828,287.83027 L310.837197,274.166221 L311.138333,274.166221 L315.429522,287.83027 Z" id="MESA" fill="#090909" fill-rule="nonzero"></path>
        </g>
    </g>
</svg>